<svg width="37" height="58" viewBox="0 0 37 58" version="1.1" xmlns="http://www.w3.org/2000/svg" xmlns:xlink="http://www.w3.org/1999/xlink">
<title>1067222401136</title>
<desc>Created using Figma</desc>
<g id="Canvas" transform="translate(967 288)">
<g id="1067222401136">
<g id="Vector">
<use xlink:href="#path0_fill" transform="translate(-967 -288)" fill="#FEFEFE"/>
</g>
<g id="Vector">
<use xlink:href="#path1_fill" transform="translate(-966.937 -268.341)" fill="#FEFEFE"/>
</g>
<g id="Group">
<g id="Group">
<g id="1">
<use xlink:href="#path2_fill" transform="translate(-956.906 -248.067)" fill="#660033"/>
</g>
</g>
</g>
<g id="Vector">
<use xlink:href="#path3_fill" transform="translate(-966.937 -270.947)" fill="#833059"/>
</g>
<g id="Group">
<g id="Vector">
<use xlink:href="#path4_fill" transform="translate(-958.776 -279.096)" fill="#660033"/>
</g>
</g>
<g id="Vector">
<use xlink:href="#path5_fill" transform="translate(-950.711 -273.918)" fill="#660033"/>
<use xlink:href="#path6_stroke" transform="translate(-950.711 -273.918)" fill="#660033"/>
</g>
<g id="Vector">
<use xlink:href="#path7_fill" transform="translate(-953.457 -270.779)" fill="#660033"/>
<use xlink:href="#path8_stroke" transform="translate(-953.457 -270.779)" fill="#660033"/>
</g>
</g>
</g>
<defs>
<path id="path0_fill" d="M 36.5592 18.1442C 36.5592 28.1635 28.3736 36.2885 18.2796 36.2885C 8.18563 36.2885 0 28.1635 0 18.1442C 0 8.125 8.18563 0 18.2796 0C 28.3736 0 36.5592 8.125 36.5592 18.1442Z"/>
<path id="path1_fill" d="M 36.937 38.0529L 0 37.9712L 0 0C 0.755596 9.06731 8.22437 16.2404 17.4611 16.6154L 36.937 38.0529Z"/>
<path id="path2_fill" fill-rule="evenodd" d="M 2.48475 0C 6.30148 5.64423 9.01872 11.6587 9.90993 18.0673C 8.25828 18.0673 6.60662 18.0673 4.95497 18.0673C 3.30331 18.0673 1.65166 18.0673 0 18.0673C 4.22359 14.8029 3.49221 4.42308 2.48959 0L 2.48475 0Z"/>
<path id="path3_fill" d="M 17.4611 19.2212C 8.22437 18.8462 0.755596 11.6731 0 2.60577L 0 0L 17.4611 19.2212Z"/>
<path id="path4_fill" d="M 19.0449 9.45673L 17.8292 9.45673L 17.8195 9.03365L 17.7856 8.61539L 17.7323 8.20192L 17.6596 7.79808L 17.5676 7.39904L 17.4562 7.00962L 17.3254 6.625L 17.1753 6.25L 17.0106 5.88462L 16.8265 5.52885L 16.628 5.18269L 16.41 4.84615L 16.1775 4.52404L 15.9305 4.21154L 15.6689 3.91346L 15.3929 3.625L 15.1022 3.35096L 14.8019 3.09135L 14.4871 2.84615L 14.1626 2.61538L 13.8235 2.39904L 13.4748 2.20192L 13.1164 2.01923L 12.7483 1.85577L 12.3705 1.70673L 11.983 1.57692L 11.5907 1.46635L 11.1886 1.375L 10.7818 1.30288L 10.3652 1.25L 9.94384 1.21635L 9.51761 1.20673L 9.51761 0L 10.0068 0.0144231L 10.4912 0.0528846L 10.9658 0.110577L 11.4357 0.192308L 11.8958 0.298077L 12.3462 0.423077L 12.787 0.572115L 13.2181 0.740385L 13.6395 0.927885L 14.0512 1.13462L 14.4484 1.36058L 14.8358 1.60577L 15.2088 1.87019L 15.5672 2.14904L 15.9111 2.44712L 16.2405 2.75962L 16.5553 3.08654L 16.8556 3.42788L 17.1365 3.78365L 17.4029 4.15385L 17.65 4.53846L 17.8776 4.93269L 18.0859 5.34135L 18.2748 5.75962L 18.4443 6.1875L 18.5944 6.625L 18.7204 7.07212L 18.8269 7.52885L 18.9093 7.99519L 18.9674 8.46635L 19.0062 8.94712L 19.0207 9.43269L 19.0449 9.45673ZM 9.52729 18.9038L 9.52729 17.6971L 9.95353 17.6875L 10.3749 17.6538L 10.7915 17.601L 11.1983 17.5288L 11.6003 17.4375L 11.9927 17.3269L 12.3802 17.1971L 12.758 17.0481L 13.1261 16.8846L 13.4845 16.7019L 13.8332 16.5048L 14.1723 16.2885L 14.4968 16.0577L 14.8116 15.8125L 15.1119 15.5529L 15.4025 15.2788L 15.6786 14.9904L 15.9402 14.6923L 16.1872 14.3798L 16.4197 14.0577L 16.6376 13.7212L 16.8362 13.375L 17.0203 13.0192L 17.185 12.6538L 17.3351 12.2788L 17.4659 11.8942L 17.5773 11.5048L 17.6693 11.1058L 17.742 10.7019L 17.7953 10.2885L 17.8292 9.87019L 17.8389 9.44712L 19.0546 9.44712L 19.0401 9.93269L 19.0013 10.4135L 18.9432 10.8846L 18.8608 11.351L 18.7543 11.8077L 18.6284 12.2548L 18.4782 12.6923L 18.3087 13.1202L 18.1198 13.5385L 17.9115 13.9471L 17.6839 14.3413L 17.4368 14.726L 17.1704 15.0962L 16.8895 15.4519L 16.5892 15.7933L 16.2744 16.1202L 15.945 16.4327L 15.6011 16.7308L 15.2427 17.0096L 14.8697 17.274L 14.4823 17.5192L 14.0851 17.7452L 13.6734 17.9519L 13.252 18.1394L 12.8209 18.3077L 12.3802 18.4567L 11.9297 18.5817L 11.4696 18.6875L 10.9997 18.7692L 10.5251 18.8269L 10.0407 18.8654L 9.55151 18.8798L 9.52729 18.9038ZM 0.00968713 9.45673L 1.22542 9.45673L 1.23511 9.87981L 1.26901 10.2981L 1.32229 10.7115L 1.39495 11.1154L 1.48697 11.5144L 1.59838 11.9038L 1.72915 12.2885L 1.8793 12.6635L 2.04398 13.0288L 2.22804 13.3846L 2.42663 13.7308L 2.64459 14.0673L 2.87708 14.3894L 3.1241 14.7019L 3.38565 15L 3.66174 15.2885L 3.95235 15.5625L 4.25265 15.8221L 4.56748 16.0673L 4.892 16.2981L 5.23105 16.5144L 5.57979 16.7115L 5.93821 16.8942L 6.30632 17.0577L 6.68412 17.2067L 7.07161 17.3365L 7.46393 17.4471L 7.86595 17.5385L 8.27281 17.6106L 8.68936 17.6635L 9.11075 17.6971L 9.53698 17.7067L 9.53698 18.9135L 9.04778 18.899L 8.56342 18.8606L 8.08875 18.8029L 7.61893 18.7212L 7.15879 18.6154L 6.70834 18.4904L 6.26757 18.3413L 5.8365 18.1731L 5.41511 17.9856L 5.0034 17.7788L 4.60623 17.5529L 4.21875 17.3077L 3.84579 17.0433L 3.48737 16.7644L 3.14347 16.4663L 2.81411 16.1538L 2.49928 15.8269L 2.19898 15.4856L 1.91805 15.1298L 1.65166 14.7596L 1.40463 14.375L 1.17699 13.9808L 0.968713 13.5721L 0.779814 13.1538L 0.610289 12.726L 0.460139 12.2885L 0.334206 11.8413L 0.227648 11.3846L 0.145307 10.9183L 0.0871842 10.4471L 0.0484357 9.96635L 0.033905 9.48077L 0.00968713 9.45673ZM 9.52729 0.00961538L 9.52729 1.21635L 9.10106 1.22596L 8.67967 1.25962L 8.26312 1.3125L 7.85626 1.38462L 7.45425 1.47596L 7.06192 1.58654L 6.67443 1.71635L 6.29664 1.86538L 5.92852 2.02885L 5.5701 2.21154L 5.22136 2.40865L 4.88231 2.625L 4.5578 2.85577L 4.24296 3.10096L 3.94266 3.36058L 3.65205 3.63462L 3.37597 3.92308L 3.11441 4.22115L 2.86739 4.53365L 2.6349 4.85577L 2.41694 5.19231L 2.21835 5.53846L 2.0343 5.89423L 1.86962 6.25962L 1.71947 6.63462L 1.58869 7.01923L 1.47729 7.40865L 1.38526 7.80769L 1.31261 8.21154L 1.25933 8.625L 1.22542 9.04327L 1.21573 9.46635L 0 9.46635L 0.0145307 8.98077L 0.0532792 8.5L 0.111402 8.02885L 0.193743 7.5625L 0.300301 7.10577L 0.426234 6.65865L 0.576384 6.22115L 0.745909 5.79327L 0.934808 5.375L 1.14308 4.96635L 1.37073 4.57212L 1.61775 4.1875L 1.88415 3.81731L 2.16507 3.46154L 2.46537 3.12019L 2.78021 2.79327L 3.10957 2.48077L 3.45346 2.18269L 3.81189 1.90385L 4.18484 1.63942L 4.57233 1.39423L 4.9695 1.16827L 5.3812 0.961538L 5.80259 0.774038L 6.23367 0.605769L 6.67443 0.456731L 7.12488 0.331731L 7.58502 0.225962L 8.05485 0.144231L 8.52952 0.0865385L 9.01388 0.0480769L 9.50308 0.0336538L 9.52729 0.00961538Z"/>
<path id="path5_fill" fill-rule="evenodd" d="M 5.52167 0L 4.25265 2.83654L 2.97879 5.67308L 1.49182 4.29808L 0 2.91827L 2.76083 1.46154L 5.52167 0Z"/>
<path id="path6_stroke" d="M 5.52167 0L 6.89089 0.612564L 8.66984 -3.36381L 4.81986 -1.3257L 5.52167 0ZM 4.25265 2.83654L 5.621 3.45105L 5.62187 3.4491L 4.25265 2.83654ZM 2.97879 5.67308L 1.96041 6.77439L 3.49235 8.19097L 4.34714 6.28759L 2.97879 5.67308ZM 1.49182 4.29808L 0.473305 5.39927L 0.473436 5.39939L 1.49182 4.29808ZM 0 2.91827L -0.699997 1.59162L -2.57424 2.58055L -1.01851 4.01946L 0 2.91827ZM 2.76083 1.46154L 3.46083 2.78819L 3.46263 2.78724L 2.76083 1.46154ZM 4.15244 -0.612564L 2.88343 2.22397L 5.62187 3.4491L 6.89089 0.612564L 4.15244 -0.612564ZM 2.8843 2.22203L 1.61044 5.05857L 4.34714 6.28759L 5.621 3.45105L 2.8843 2.22203ZM 3.99718 4.57176L 2.5102 3.19676L 0.473436 5.39939L 1.96041 6.77439L 3.99718 4.57176ZM 2.51033 3.19688L 1.01851 1.81707L -1.01851 4.01946L 0.473305 5.39927L 2.51033 3.19688ZM 0.699997 4.24492L 3.46083 2.78819L 2.06084 0.134887L -0.699997 1.59162L 0.699997 4.24492ZM 3.46263 2.78724L 6.22347 1.3257L 4.81986 -1.3257L 2.05903 0.135841L 3.46263 2.78724Z"/>
<path id="path7_fill" fill-rule="evenodd" d="M 0 5.67308L 1.27386 2.83654L 2.54287 0L 4.03469 1.37981L 5.52651 2.75962L 2.76568 4.21635L 0 5.67308Z"/>
<path id="path8_stroke" d="M 0 5.67308L -1.36835 5.05857L -3.15104 9.02814L 0.699037 7.00023L 0 5.67308ZM 1.27386 2.83654L 2.64221 3.45105L 2.64308 3.4491L 1.27386 2.83654ZM 2.54287 0L 3.56139 -1.10119L 2.02712 -2.52026L 1.17365 -0.612564L 2.54287 0ZM 5.52651 2.75962L 6.22651 4.08627L 8.10075 3.09734L 6.54502 1.65842L 5.52651 2.75962ZM 2.76568 4.21635L 3.46471 5.5435L 3.46567 5.543L 2.76568 4.21635ZM 1.36835 6.28759L 2.64221 3.45105L -0.0944907 2.22203L -1.36835 5.05857L 1.36835 6.28759ZM 2.64308 3.4491L 3.91209 0.612564L 1.17365 -0.612564L -0.0953631 2.22397L 2.64308 3.4491ZM 1.52436 1.10119L 3.01618 2.481L 5.0532 0.278613L 3.56139 -1.10119L 1.52436 1.10119ZM 3.01618 2.481L 4.50799 3.86081L 6.54502 1.65842L 5.0532 0.278613L 3.01618 2.481ZM 4.82651 1.43296L 2.06568 2.88969L 3.46567 5.543L 6.22651 4.08627L 4.82651 1.43296ZM 2.06664 2.88919L -0.699037 4.34592L 0.699037 7.00023L 3.46471 5.5435L 2.06664 2.88919Z"/>
</defs>
</svg>
